PathFileType	3	(X/Y/Z)	static.trc																																																																												
DataRate	CameraRate	NumFrames	NumMarkers	Units	OrigDataRate	OrigDataStartFrame	OrigNumFrames																																																																								
100	100	14	26	mm	100	33	260																																																																								
Frame#	Time	RAcromium			LAcromium			C7			Clavicle			VSacral			RASIS			LASIS			RHip			LHip			RKneeLat			RKneeMed			LKneeMed			LKneeLat			LShankFront			RShankFront			RAnkleLat			RAnkleMed			LAnkleMed			LAnkleLat			LToeLat			LToeTip			RToeTip			RToeLat			RHeel			LHeel			T10		
		X1	Y1	Z1	X2	Y2	Z2	X3	Y3	Z3	X4	Y4	Z4	X5	Y5	Z5	X6	Y6	Z6	X7	Y7	Z7	X8	Y8	Z8	X9	Y9	Z9	X10	Y10	Z10	X11	Y11	Z11	X12	Y12	Z12	X13	Y13	Z13	X14	Y14	Z14	X15	Y15	Z15	X16	Y16	Z16	X17	Y17	Z17	X18	Y18	Z18	X19	Y19	Z19	X20	Y20	Z20	X21	Y21	Z21	X22	Y22	Z22	X23	Y23	Z23	X24	Y24	Z24	X25	Y25	Z25	X26	Y26	Z26
33	0.32	885.83441	1559.0863	-444.82248	871.44708	1560.9823	-693.83087	843.25079	1583.0828	-563.77063	995.7525	1480.8363	-579.08112	794.03253	1086.6439	-550.69824	970.77551	1082.8376	-426.97388	975.10254	1078.1116	-695.33203	902.05243	993.04071	-386.98312	893.71863	985.68262	-740.82874	908.24255	532.70972	-410.8631	883.33905	520.88885	-541.32001	903.65759	537.35254	-602.37665	902.34644	546.70068	-722.6225	929.32788	438.73434	-686.33472	950.84558	448.41302	-464.89578	833.25427	82.764267	-420.75452	854.89343	92.349762	-504.34512	854.27271	96.486244	-625.88605	820.1358	75.036354	-704.19867	973.36401	19.430996	-745.15338	1043.2107	23.828335	-679.84082	1044.5725	21.024729	-457.12033	972.64911	19.816751	-379.91119	747.28015	10.246416	-466.26385	748.1095	9.4582024	-650.66943	785.724	1290.8883	-559.27405
34	0.33	885.71411	1559.067	-444.83179	871.30615	1560.9734	-693.84387	843.10205	1583.0702	-563.7616	995.6391	1480.8519	-579.10956	794.04871	1086.576	-550.77081	970.7854	1082.8296	-427.05008	975.078	1078.1584	-695.38824	902.08514	993.05115	-387.00122	893.77563	985.66974	-740.86377	908.30731	532.68402	-410.83218	883.20892	520.90582	-541.39502	903.49695	537.33868	-602.49109	902.35742	546.6911	-722.64105	929.30707	438.72327	-686.38226	950.87067	448.43594	-464.9054	833.2608	82.764717	-420.75259	854.94299	92.155182	-504.41318	854.30164	96.52652	-625.92529	820.0899	75.086502	-704.20081	973.36371	19.335384	-745.20203	1043.1721	23.844706	-679.82587	1044.5975	21.04501	-457.08145	972.67023	19.748392	-379.94308	747.2135	10.29847	-466.25162	748.0835	9.4455118	-650.64099	785.63422	1290.8503	-559.31281
35	0.34	885.57043	1559.0732	-444.82913	871.16644	1560.9667	-693.85779	842.94305	1583.078	-563.7605	995.54407	1480.8917	-579.13745	794.01385	1086.5249	-550.78204	970.77563	1082.849	-427.09293	975.03027	1078.1582	-695.49432	902.11755	993.06177	-387.05496	893.74927	985.69141	-740.86005	908.28876	532.72467	-410.83862	883.20123	520.92096	-541.3468	903.65057	537.4176	-602.45966	902.29956	546.69873	-722.7262	929.27863	438.75943	-686.44586	950.81598	448.42026	-464.90948	833.2204	82.742668	-420.74472	854.9469	92.152283	-504.35388	854.26282	96.545914	-625.93823	820.13458	75.021538	-704.18341	973.35577	19.399776	-745.19885	1043.1251	23.793159	-679.89038	1044.486	21.021345	-457.10818	972.61646	19.816793	-379.95279	747.24237	10.299304	-466.2467	748.08203	9.4416084	-650.66504	785.62787	1290.826	-559.36536
36	0.35	885.43878	1559.0839	-444.84949	871.0354	1560.9672	-693.87146	842.80505	1583.0571	-563.78253	995.42609	1480.9541	-579.15076	794.03632	1086.4818	-550.84857	970.75494	1082.9136	-427.16245	975.13129	1078.1672	-695.4881	902.11334	993.09576	-387.04752	893.76892	985.70233	-740.91089	908.25958	532.77997	-410.79965	883.18744	520.91333	-541.38519	903.66956	537.40259	-602.51056	902.20721	546.71936	-722.80017	929.22693	438.78391	-686.49005	950.52637	448.34729	-464.61758	833.24628	82.782318	-420.73386	854.93231	92.174225	-504.39899	854.12891	96.708145	-626.06366	820.12073	75.03537	-704.27161	973.30396	19.34454	-745.33698	1043.1392	23.786238	-679.88055	1044.5464	21.125534	-457.01837	972.65582	19.852381	-379.90619	747.24176	10.235937	-466.29382	748.07019	9.4242287	-650.65381	785.52301	1290.8245	-559.3847
37	0.36	885.29761	1559.0745	-444.86618	870.8999	1560.9777	-693.89392	842.68237	1583.0452	-563.79883	995.32428	1480.9873	-579.18616	794.04834	1086.4479	-550.90314	970.79492	1082.9591	-427.2338	975.10388	1078.2054	-695.57697	902.15411	993.10809	-387.0968	893.78955	985.70807	-740.94	908.24463	532.77618	-410.86926	883.19592	520.92719	-541.3761	904.49933	537.98175	-601.99738	902.2063	546.70386	-722.73688	929.16534	438.8075	-686.55664	950.7851	448.42145	-464.92923	833.23724	82.746506	-420.74265	854.90692	92.15934	-504.40186	854.08539	96.710464	-626.09143	820.10272	75.004539	-704.29102	973.36975	19.431229	-745.19812	1043.2936	23.883371	-679.78082	1044.5248	21.044996	-457.15268	972.63403	19.76367	-379.8768	747.21515	10.24178	-466.31177	748.05823	9.4720211	-650.65131	785.47681	1290.7684	-559.40637
38	0.37	885.14789	1559.0603	-444.90717	870.73883	1560.9768	-693.92499	842.53094	1583.0256	-563.82928	995.23383	1481.0342	-579.21161	794.06476	1086.4232	-550.96613	970.80835	1082.9795	-427.21439	975.19788	1078.2377	-695.54993	902.13037	993.12689	-387.14029	893.83685	985.71826	-740.96191	908.19708	532.77948	-410.84412	883.26947	520.88501	-541.36926	903.40363	537.30182	-602.71765	902.14276	546.74261	-722.80066	929.09113	438.80844	-686.59723	950.49805	448.3476	-464.56345	833.27942	82.762428	-420.71616	854.86877	92.235481	-504.42838	854.25909	96.573006	-626.05859	820.11572	74.986427	-704.33563	973.36853	19.352171	-745.25201	1043.1812	23.870235	-679.80109	1044.4958	20.995327	-457.12189	972.53809	19.78274	-379.87347	747.23956	10.257968	-466.25256	748.07935	9.4205751	-650.67834	785.39331	1290.7341	-559.45172
39	0.38	885.02448	1559.0551	-444.94101	870.62421	1560.9644	-693.93518	842.39075	1583.0105	-563.86792	995.11096	1481.0426	-579.2301	794.07312	1086.4038	-551.02167	970.73834	1082.9843	-427.30499	975.20642	1078.2595	-695.59351	902.12415	993.12683	-387.18127	893.85278	985.71594	-740.99939	908.18616	532.79498	-410.84302	883.29456	520.90649	-541.37311	903.39923	537.42139	-602.65576	901.97998	546.76514	-722.90424	929.00842	438.85028	-686.65973	950.80731	448.43985	-464.85507	833.29883	82.802925	-420.60873	854.88153	92.242889	-504.40265	854.58319	96.834679	-625.97668	820.0871	74.983757	-704.33453	973.06445	19.311743	-745.43927	1043.1152	23.903582	-679.83521	1044.4698	21.006523	-457.12582	972.5835	19.805601	-379.97696	747.22961	10.23281	-466.32138	748.07013	9.4065943	-650.68506	785.30536	1290.7234	-559.47388
40	0.39	884.87885	1559.0594	-444.96753	870.51111	1560.9661	-693.96692	842.23035	1582.9965	-563.88525	995.00531	1481.0626	-579.25848	794.07788	1086.3529	-551.10919	970.74792	1083.0486	-427.34271	975.12067	1078.3004	-695.74377	902.13776	993.16119	-387.26154	893.91327	985.73358	-741.05261	908.28949	532.80811	-410.82312	883.26392	520.93225	-541.36523	903.1698	537.32086	-602.80646	901.98541	546.76935	-722.8017	928.94757	438.88458	-686.63965	950.79584	448.41321	-464.84894	833.24115	82.751564	-420.71918	855.00232	92.165993	-504.33762	854.24158	96.555237	-626.03864	820.14789	74.942909	-704.31702	973.39948	19.339083	-745.23621	1043.204	23.901157	-679.85791	1044.6025	21.034811	-457.0943	972.60577	19.739182	-379.94458	747.26428	10.283338	-466.27139	748.06628	9.4417362	-650.6723	785.31818	1290.6959	-559.54688
41	0.4	884.78058	1559.0422	-445.00598	870.38721	1560.9626	-693.99487	842.12048	1582.9711	-563.89587	994.93475	1481.1193	-579.27667	794.09723	1086.3007	-551.17743	970.79681	1083.1278	-427.38669	975.27588	1078.2491	-695.67908	902.13251	993.17023	-387.30215	893.96918	985.73297	-741.0885	908.27856	532.84583	-410.86676	883.25787	520.91534	-541.41699	903.06653	537.36865	-602.87732	901.87408	546.76855	-722.91431	928.85736	438.90463	-686.70844	950.83179	448.41516	-464.90329	833.35004	82.803123	-420.56543	854.9729	92.147659	-504.31406	854.2464	96.546021	-626.047	820.0788	74.974358	-704.31012	973.39398	19.325954	-745.24768	1043.2075	23.926151	-679.7923	1044.4973	21.021776	-457.12866	972.56964	19.737123	-379.88989	747.20227	10.304353	-466.28638	748.06091	9.4226151	-650.64325	785.20874	1290.6857	-559.54187
42	0.41	884.65631	1559.0164	-445.04697	870.2746	1560.9507	-694.03552	841.99512	1582.9526	-563.92603	994.83362	1481.1053	-579.34845	794.07159	1086.2664	-551.25409	970.66516	1083.0935	-427.43365	975.16797	1078.3309	-695.85699	902.14764	993.17584	-387.36081	893.88007	985.78326	-741.13226	908.2934	532.76276	-410.80945	883.37305	520.95203	-541.39441	903.24561	537.39673	-602.80255	901.90131	546.77106	-722.85217	928.79199	438.87518	-686.73132	950.80792	448.40857	-464.85751	833.37	82.796417	-420.55533	854.89746	92.25103	-504.39377	854.23047	96.569557	-626.03131	820.11719	74.906197	-704.35272	973.35052	19.420515	-745.20782	1043.2681	23.97253	-679.77667	1044.5553	21.106218	-457.04443	972.66034	19.739456	-379.92438	747.24524	10.247404	-466.30341	748.07758	9.3948488	-650.67249	785.1554	1290.6371	-559.6203
43	0.42	884.586	1559.0028	-445.07489	870.1748	1560.9458	-694.06952	841.89014	1582.934	-563.96558	994.74841	1481.1158	-579.35675	794.08496	1086.1881	-551.30737	970.62274	1083.1492	-427.53284	975.33649	1078.3297	-695.74969	902.16931	993.19678	-387.42163	893.99939	985.70813	-741.14453	908.31024	532.80463	-410.8428	883.33575	520.95825	-541.41577	903.10767	537.40149	-602.88141	901.71716	546.78241	-722.98529	928.7359	438.85538	-686.77954	950.89252	448.43704	-464.90546	833.27783	82.785767	-420.72156	854.88611	92.27668	-504.42444	854.48108	96.805832	-626.03815	820.10651	74.926918	-704.28546	973.06293	19.337763	-745.43927	1043.2065	23.951406	-679.862	1044.3524	21.01709	-457.27216	972.6347	19.752556	-379.91788	747.19617	10.281663	-466.33911	748.08252	9.4084044	-650.65326	785.13074	1290.6029	-559.69354
44	0.43	884.48206	1558.9958	-445.11633	870.04907	1560.957	-694.09009	841.82239	1582.9261	-564.00043	994.62994	1481.1417	-579.40582	794.06354	1086.123	-551.36066	970.68292	1083.1537	-427.52142	975.32104	1078.387	-695.8089	902.16809	993.17468	-387.46024	893.9184	985.71509	-741.18896	908.27875	532.82465	-410.89267	883.34558	520.98126	-541.43085	903.1424	537.42432	-602.87378	901.66321	546.78229	-723.01917	928.67938	438.91394	-686.81714	950.87018	448.41348	-464.88174	833.26099	82.780663	-420.71439	854.91248	92.335548	-504.37616	854.21594	96.514397	-626.00824	820.04584	75.002205	-704.3092	973.33337	19.358673	-745.28235	1043.1898	24.005053	-679.84137	1044.5499	21.038633	-457.1637	972.64166	19.695915	-379.8815	747.28546	10.263342	-466.23145	748.06934	9.3736258	-650.6568	785.05151	1290.593	-559.73151
45	0.44	884.40704	1558.9725	-445.15268	869.94806	1560.958	-694.11609	841.7052	1582.906	-564.00476	994.57031	1481.1497	-579.42926	794.06982	1086.0472	-551.43622	970.66211	1083.1903	-427.565	975.29852	1078.3188	-695.89429	902.21936	993.19244	-387.50412	893.95197	985.75568	-741.23334	908.31897	532.83954	-410.9303	883.41449	520.9574	-541.4696	903.12683	537.45361	-602.93073	901.57709	546.79462	-723.08582	928.58453	438.90329	-686.91852	950.91321	448.45645	-464.87585	833.34076	82.826553	-420.56693	854.90704	92.324799	-504.37497	854.17676	96.539963	-626.03094	820.03119	74.9646	-704.28546	973.33032	19.439095	-745.23547	1043.2542	24.006203	-679.80109	1044.5459	21.03788	-457.13428	972.58783	19.761778	-379.90302	747.30109	10.293232	-466.23767	748.0567	9.3570929	-650.65424	784.93103	1290.5602	-559.80743
46	0.45	884.31671	1558.9681	-445.18506	869.82306	1560.9534	-694.15814	841.60565	1582.8911	-564.04199	994.4668	1481.1708	-579.48364	794.03839	1085.9808	-551.5022	970.54688	1083.2102	-427.68814	975.29175	1078.3428	-695.93848	902.20361	993.19928	-387.53668	893.89966	985.77435	-741.32306	908.34808	532.8407	-410.90857	883.50806	520.96686	-541.44641	902.89453	537.42548	-603.04889	901.55249	546.81897	-723.10028	928.52734	438.90302	-686.9046	950.99115	448.51849	-464.96246	833.271	82.822678	-420.70868	854.88226	92.321968	-504.38773	854.16315	96.58744	-626.09241	820.02631	74.983688	-704.32379	973.3598	19.354155	-745.27094	1042.8998	23.584547	-680.04071	1044.5542	21.069199	-457.05923	972.65228	19.730524	-379.83267	747.20557	10.351805	-466.27554	748.06781	9.3356066	-650.66718	784.79883	1290.549	-559.87555
